<svg width="22" height="28" viewBox="0 0 22 28" fill="none" xmlns="http://www.w3.org/2000/svg">
<path d="M5.69342 2.36744L5.66879 12.2696C4.78037 12.0671 3.87017 11.9761 2.95923 11.9987C2.04784 12.245 1.13645 13.5505 0.249682 13.8707C-0.253629 11.6209 0.00858437 9.26745 0.994739 7.18359C1.98089 5.09972 3.63454 3.40474 5.69342 2.36744ZM11.6298 0.790975L16.6302 9.28912C17.233 8.6784 17.932 8.1708 18.6993 7.78655C19.586 7.54022 21.0147 8.2053 22 8.0575C21.3197 5.86918 19.9325 3.96848 18.0557 2.65342C16.179 1.33837 13.9189 0.683316 11.6298 0.790975ZM15.4109 27.399L16.2853 26.9997L11.6791 9.75713C12.9599 9.63397 14.5118 9.83103 15.4478 9.75713L10.2504 0.889504H10.2258C9.64484 0.971103 9.06912 1.08625 8.5015 1.23436C7.96282 1.37407 7.43576 1.55524 6.92503 1.77627L6.9004 11.9987C7.76253 11.5799 8.96952 10.6685 10.1026 10.1759L13.9945 27.3989C15.4109 27.3989 15.4109 27.399 15.4109 27.399C18.262 27.399 11.7899 27.399 15.4109 27.399Z" fill="black"/>
</svg>
