<svg width="692" height="428" viewBox="0 0 692 428" fill="none" xmlns="http://www.w3.org/2000/svg">
<path d="M570.601 351.843C595.171 338.844 609.846 320.97 614.626 298.222C619.408 275.474 617.806 254.557 609.82 235.472" stroke="#14173B" stroke-width="32.8661" stroke-linecap="round"/>
<path d="M186.533 357.01C211.103 344.011 225.779 326.137 230.559 303.389C235.34 280.64 233.738 259.724 225.753 240.639" stroke="#14173B" stroke-width="32.8661" stroke-linecap="round"/>
<path d="M542.857 148.628C615.819 148.628 674.966 207.406 674.966 279.912C674.966 352.418 615.819 411.196 542.857 411.196C469.896 411.196 410.749 352.418 410.749 279.912C410.749 207.406 469.896 148.628 542.857 148.628Z" stroke="#14173B" stroke-width="32.7633"/>
<path d="M149.109 148.628C222.07 148.628 281.218 207.406 281.218 279.912C281.218 352.418 222.07 411.196 149.109 411.196C76.1474 411.196 17 352.418 17 279.912C17 207.406 76.1474 148.628 149.109 148.628Z" stroke="#14173B" stroke-width="32.7633"/>
<path d="M543.271 289.374L487.016 66.7442L474.687 17.9533C508.982 16.6834 529.13 16.6834 535.13 17.9533C544.131 19.8572 551.051 26.5162 552.642 34.4471C554.233 42.3785 551.226 49.3564 543.271 58.5239C537.968 64.636 532.225 66.8281 526.041 65.1016" stroke="#1C7CA5" stroke-width="32.7633" stroke-linecap="round"/>
<path d="M487.016 66.7439C491.22 61.1372 420.804 76.32 275.767 112.293C184.235 223.887 142.199 279.685 149.659 279.685H338.915C433.445 143.331 482.812 72.3507 487.016 66.7439Z" stroke="#1C7CA5" stroke-width="32.7633"/>
<path d="M338.916 279.686L231.353 23.7791" stroke="#1C7CA5" stroke-width="32.7633"/>
<path d="M260.537 17.0009H192.3" stroke="#10163A" stroke-width="32.7633" stroke-linecap="round"/>
</svg>
