<svg width="40" height="30" viewBox="0 0 40 30" fill="none" xmlns="http://www.w3.org/2000/svg">
<rect y="0.52002" width="40" height="28.8" rx="8" fill="#F0BC16"/>
<path d="M27.2 19.8534C26.8605 19.8533 26.5249 19.7805 26.216 19.6397C25.8975 19.495 25.5518 19.4196 25.202 19.4184C24.8514 19.4198 24.5051 19.4952 24.1856 19.6397C23.8767 19.7804 23.5412 19.8532 23.2018 19.8532C22.8624 19.8532 22.5269 19.7804 22.218 19.6397C21.8984 19.496 21.5524 19.4206 21.202 19.4184C20.8514 19.42 20.5051 19.4955 20.1856 19.6397C19.8761 19.7804 19.5401 19.8531 19.2001 19.8531C18.8602 19.8531 18.5242 19.7804 18.2146 19.6397C17.8967 19.4955 17.5518 19.42 17.2026 19.4184C16.8522 19.42 16.506 19.4955 16.1866 19.6397C15.8772 19.7805 15.5412 19.8533 15.2013 19.8533C14.8614 19.8533 14.5254 19.7805 14.216 19.6397C13.8967 19.4952 13.5505 19.4197 13.2 19.4184C12.8508 19.4204 12.5058 19.4958 12.1876 19.6397C11.8773 19.7802 11.5406 19.8531 11.2 19.8534V18.3881C11.5401 18.3862 11.8762 18.3146 12.1876 18.1777C12.505 18.0309 12.8503 17.9542 13.2 17.9531C13.562 17.9531 13.909 18.0364 14.216 18.1777C14.5256 18.3146 14.8601 18.3862 15.1986 18.3881C15.5389 18.3867 15.8753 18.3151 16.1866 18.1777C16.5052 18.0305 16.8517 17.9538 17.2026 17.9531C17.562 17.9531 17.9073 18.0364 18.2146 18.1777C18.5257 18.3147 18.8615 18.3863 19.2013 18.3881C19.5404 18.3863 19.8755 18.3147 20.1856 18.1777C20.5043 18.0305 20.851 17.9539 21.202 17.9531C21.5596 17.9531 21.9063 18.0364 22.218 18.1777C22.5163 18.3087 22.8513 18.3881 23.2013 18.3881C23.5404 18.3866 23.8755 18.315 24.1856 18.1777C24.5042 18.0303 24.8509 17.9536 25.202 17.9531C25.564 17.9531 25.9103 18.0364 26.216 18.1777C26.526 18.3149 26.861 18.3865 27.2 18.3881V19.8534ZM24.8826 15.7081C25.9333 15.7081 26.786 14.8581 26.786 13.8154C26.786 12.7717 25.9333 11.9261 24.8826 11.9261C23.8303 11.9261 22.9786 12.7721 22.9786 13.8154C22.9786 14.8581 23.7546 15.7081 24.8826 15.7081ZM13.797 16.7721C13.9446 16.8071 14.084 16.8581 14.2163 16.9174C14.5254 17.0568 14.8603 17.1295 15.1993 17.1311C15.5493 17.1311 15.889 17.0517 16.187 16.9174C16.506 16.7715 16.8522 16.6947 17.203 16.6921C17.5623 16.6921 17.9083 16.7794 18.215 16.9174C18.5253 17.0569 18.8614 17.1297 19.2016 17.1311C19.5483 17.1311 19.8876 17.0517 20.1856 16.9174C20.5048 16.7715 20.8511 16.6947 21.202 16.6921C21.56 16.6921 21.907 16.7794 22.218 16.9174C22.5166 17.0514 22.8513 17.1311 23.202 17.1311C23.457 17.1311 23.7026 17.0881 23.9343 17.0157L20.7593 11.3304L24.4523 10.6614C24.9943 10.5587 25.3876 10.1361 25.3876 9.59508C25.3876 8.99841 24.8986 8.52008 24.3003 8.52008L24.177 8.52375L18.4723 9.55441C18.072 9.64541 17.5416 10.2274 17.8436 10.9414L17.8923 11.0564L19.381 13.7241L13.797 16.7721Z" fill="black"/>
</svg>
